<mxfile host="65bd71144e">
    <diagram id="vAB-JriuDC55rx6uf-v_" name="Page-1">
        <mxGraphModel dx="419" dy="187" grid="1" gridSize="10" guides="1" tooltips="1" connect="1" arrows="1" fold="1" page="1" pageScale="1" pageWidth="850" pageHeight="1100" math="0" shadow="0">
            <root>
                <mxCell id="0"/>
                <mxCell id="1" parent="0"/>
                <mxCell id="2" value="" style="ellipse;whiteSpace=wrap;html=1;aspect=fixed;fillColor=#6a00ff;fontColor=#ffffff;strokeColor=#3700CC;" parent="1" vertex="1">
                    <mxGeometry x="310" y="320" width="80" height="80" as="geometry"/>
                </mxCell>
                <mxCell id="3" value="" style="shape=process;whiteSpace=wrap;html=1;backgroundOutline=1;" vertex="1" parent="1">
                    <mxGeometry x="290" y="470" width="120" height="60" as="geometry"/>
                </mxCell>
                <mxCell id="4" value="" style="ellipse;shape=cloud;whiteSpace=wrap;html=1;" vertex="1" parent="1">
                    <mxGeometry x="170" y="390" width="120" height="80" as="geometry"/>
                </mxCell>
                <mxCell id="5" value="" style="shape=tape;whiteSpace=wrap;html=1;" vertex="1" parent="1">
                    <mxGeometry x="510" y="420" width="120" height="100" as="geometry"/>
                </mxCell>
            </root>
        </mxGraphModel>
    </diagram>
</mxfile>